<svg xmlns="http://www.w3.org/2000/svg" version="1.1" xmlns:xlink="http://www.w3.org/1999/xlink" width="512" height="512" x="0" y="0" viewBox="0 0 24 24" style="enable-background:new 0 0 512 512" xml:space="preserve" class=""><g><path fill="#000000" fill-rule="evenodd" d="M13.395 1.324a3.162 3.162 0 0 0-2.79 0l-8.752 4.31c-1.137.56-1.137 2.173 0 2.733l8.752 4.309a3.161 3.161 0 0 0 2.79 0l8.752-4.31c1.137-.56 1.137-2.173 0-2.733zM1.903 10.61a.5.5 0 0 1 .442 0l8.26 4.067a3.162 3.162 0 0 0 2.79 0l8.26-4.067a.5.5 0 0 1 .442 0l.05.024c1.137.56 1.137 2.174 0 2.733l-8.752 4.31a3.162 3.162 0 0 1-2.79 0l-8.752-4.31c-1.137-.56-1.137-2.173 0-2.733zm.442 5a.5.5 0 0 0-.442 0l-.05.025c-1.137.56-1.137 2.173 0 2.733l8.752 4.309a3.162 3.162 0 0 0 2.79 0l8.752-4.31c1.137-.56 1.137-2.173 0-2.733l-.05-.024a.5.5 0 0 0-.442 0l-8.26 4.067a3.162 3.162 0 0 1-2.79 0z" clip-rule="evenodd" opacity="1" data-original="#000000"></path></g></svg>