<svg xmlns="http://www.w3.org/2000/svg" width="7.604" height="7.915" viewBox="0 0 7.604 7.915">
  <g id="gift" transform="translate(-4)">
    <path id="Caminho_1" data-name="Caminho 1" d="M9.124,4.4H6.554a.371.371,0,0,0-.37.37V7.545a.371.371,0,0,0,.37.37H9.167c.087,0,.087-.094.087-.094v-3.3a.125.125,0,0,0-.13-.126Zm3.457,0H10.013c-.156,0-.133.163-.133.163V7.824a.088.088,0,0,0,.093.09H12.58a.371.371,0,0,0,.37-.37V4.765a.371.371,0,0,0-.37-.37ZM9.254,2.208a.122.122,0,0,0-.124-.125H6.135a.371.371,0,0,0-.37.37V3.609a.371.371,0,0,0,.37.37H9.14a.1.1,0,0,0,.114-.1ZM13,2.083h-3a.109.109,0,0,0-.114.109V3.883s0,.1.139.1H13a.371.371,0,0,0,.37-.37V2.453A.371.371,0,0,0,13,2.083Zm-5-.274a2.42,2.42,0,0,1-.46-.04,1.089,1.089,0,0,1-.724-.4A.834.834,0,0,1,6.694.7.807.807,0,0,1,7.553,0a1.689,1.689,0,0,1,.321.034,2.973,2.973,0,0,1,1,.448c.566.379.594.614.565.759C9.4,1.452,9.2,1.6,8.832,1.7a3.334,3.334,0,0,1-.837.106ZM7.553.594c-.18,0-.242.05-.276.224-.028.142.007.192.019.208a.585.585,0,0,0,.353.16,1.858,1.858,0,0,0,.346.029,2.672,2.672,0,0,0,.7-.09c.012,0,.031-.018.011-.03A2.5,2.5,0,0,0,7.76.616,1.1,1.1,0,0,0,7.553.594Zm3.6,1.215h0A3.334,3.334,0,0,1,10.31,1.7c-.366-.1-.564-.251-.606-.463-.028-.144,0-.38.565-.759a2.972,2.972,0,0,1,1-.448A1.689,1.689,0,0,1,11.59,0a.807.807,0,0,1,.858.7.834.834,0,0,1-.116.664,1.088,1.088,0,0,1-.724.4A2.424,2.424,0,0,1,11.148,1.809Zm-.708-.717a.017.017,0,0,0,0,.032,2.664,2.664,0,0,0,.708.092,1.858,1.858,0,0,0,.346-.029.585.585,0,0,0,.353-.16c.012-.016.047-.066.019-.208-.034-.174-.1-.224-.276-.224a1.1,1.1,0,0,0-.207.023,2.471,2.471,0,0,0-.943.475Z" transform="translate(-1.765 0)" fill="#fff"/>
  </g>
</svg>
