<svg xmlns="http://www.w3.org/2000/svg" version="1.1" xmlns:xlink="http://www.w3.org/1999/xlink" width="512" height="512" x="0" y="0" viewBox="0 0 512 512" style="enable-background:new 0 0 512 512" xml:space="preserve" class=""><g><path d="m295.772 30.589-13.516 107.694a6 6 0 0 1-5.953 5.253h-40.607a6 6 0 0 1-5.953-5.251L216.198 30.591a6 6 0 0 1 3.409-6.183l33.834-15.842a5.998 5.998 0 0 1 5.088 0l33.834 15.842a6 6 0 0 1 3.409 6.181zM445.28 381.752l-23.831-28.917V204.798c0-66.994-43.415-125.904-104.845-147.463l-10.534 83.937c-1.881 14.974-14.678 26.264-29.767 26.264h-40.607c-15.089 0-27.885-11.289-29.766-26.26l-10.557-83.937C133.937 78.903 90.522 137.808 90.522 204.797v148.039l-23.805 28.917a6 6 0 0 0 .501 8.165L185.667 502.35a5.997 5.997 0 0 0 6.499 1.161 6 6 0 0 0 3.632-5.513V302.055a6 6 0 0 0-3-5.196l-51.326-29.632v-47.74l83.806 48.361v68.332c0 1.874.875 3.639 2.366 4.774l24.707 18.807a6 6 0 0 0 7.266.002l24.736-18.807a6.001 6.001 0 0 0 2.368-4.776v-68.332l83.777-48.359v47.738l-51.327 29.632a6.002 6.002 0 0 0-3 5.196v195.943a6 6 0 0 0 10.13 4.352L444.78 389.918a6 6 0 0 0 .5-8.168z" fill="#000000" opacity="1" data-original="#000000" class=""></path></g></svg>