<svg xmlns="http://www.w3.org/2000/svg" version="1.1" xmlns:xlink="http://www.w3.org/1999/xlink" width="512" height="512" x="0" y="0" viewBox="0 0 512 512" style="enable-background:new 0 0 512 512" xml:space="preserve" class=""><g><path d="M260.52 329.539a24 24 0 0 0 33.941 33.941l90.51-90.51a24 24 0 0 0 0-33.941l-90.51-90.509a24 24 0 0 0-33.941 0 24 24 0 0 0 0 33.941L310.059 232H48a24 24 0 0 0-24 24 24 24 0 0 0 24 24h262.059z" fill="#fdfdfd" opacity="1" data-original="#000000" class=""></path><path d="M448 24H224a40 40 0 0 0-40 40v32a24 24 0 0 0 48 0V72h208v368H232v-24a24 24 0 0 0-48 0v32a40 40 0 0 0 40 40h224a40 40 0 0 0 40-40V64a40 40 0 0 0-40-40z" fill="#fdfdfd" opacity="1" data-original="#000000" class=""></path></g></svg>