<svg xmlns="http://www.w3.org/2000/svg" version="1.1" xmlns:xlink="http://www.w3.org/1999/xlink" width="512" height="512" x="0" y="0" viewBox="0 0 64 64" style="enable-background:new 0 0 512 512" xml:space="preserve" class=""><g><path d="M37 40h-2v-1a19.021 19.021 0 0 1 19-19h1v2h-1a17.019 17.019 0 0 0-17 17zM25 37h-2v-1a9.011 9.011 0 0 0-9-9h-1v-2h1a11.013 11.013 0 0 1 11 11z" fill="#000000" opacity="1" data-original="#000000"></path><circle cx="44" cy="36" r="2" fill="#000000" opacity="1" data-original="#000000"></circle><circle cx="46" cy="15" r="2" fill="#000000" opacity="1" data-original="#000000"></circle><circle cx="54" cy="28" r="2" fill="#000000" opacity="1" data-original="#000000"></circle><circle cx="17" cy="34" r="2" fill="#000000" opacity="1" data-original="#000000"></circle><path d="M30 44h4v18h-4zM36 44h13v18H36zM15 44h13v18H15zM56 3l1.648 2.989L61 6.633l-2.333 2.491.423 3.387-3.09-1.45-3.09 1.45.423-3.387L51 6.633l3.352-.644zM32 21.392l1.318 2.391 2.682.515-1.867 1.993.339 2.709L32 27.841 29.528 29l.339-2.709L28 24.298l2.682-.515zM28.837 5.746a4.531 4.531 0 0 0-8.978.4l-.249 3.183-1.81-2.638a4.533 4.533 0 1 0-3.716 7.128c.136 0 .272-.006.409-.019l6.157-.6 5.637-2.566a4.524 4.524 0 0 0 2.551-4.893zm-14.53 6.063a2.488 2.488 0 0 1-1.289-.225 2.533 2.533 0 1 1 3.137-3.754l2.445 3.564zm12.14-3.824a2.516 2.516 0 0 1-1 .836l-3.934 1.791.337-4.3a2.524 2.524 0 0 1 2.08-2.273A2.582 2.582 0 0 1 24.378 4a2.532 2.532 0 0 1 2.069 3.985zM13.657 41.372l-.514-.857A9.346 9.346 0 0 0 5.169 36H3v-2h2.169a11.355 11.355 0 0 1 9.688 5.485l.515.858zM49.447 41.342l-1.789-.895.447-.894A11.79 11.79 0 0 1 58.708 33H61v2h-2.292a9.8 9.8 0 0 0-8.808 5.447z" fill="#000000" opacity="1" data-original="#000000"></path><path d="m37.773 7.567-7.645 2.049a6.422 6.422 0 0 1-3 2.837l-5.954 2.711-6.49.627c-.21.019-.406.028-.6.028a6.4 6.4 0 0 1-3.438-.983L3 16.885l1.553 5.795 34.773-9.317z" fill="#000000" opacity="1" data-original="#000000"></path></g></svg>